G04 #@! TF.FileFunction,Legend,Bot*
%FSLAX46Y46*%
G04 Gerber Fmt 4.6, Leading zero omitted, Abs format (unit mm)*
G04 Created by KiCad (PCBNEW 0.201503050816+5478~22~ubuntu14.10.1-product) date Friday 13 March 2015 12:23:03 AM IST*
%MOMM*%
G01*
G04 APERTURE LIST*
%ADD10C,0.100000*%
%ADD11C,0.300000*%
%ADD12R,2.200000X1.700000*%
%ADD13O,2.200000X1.700000*%
%ADD14C,4.200000*%
%ADD15R,2.400000X1.400000*%
%ADD16O,2.400000X1.400000*%
G04 APERTURE END LIST*
D10*
X60000000Y-22500000D02*
X60000000Y-49500000D01*
X22500000Y-20000000D02*
X57500000Y-20000000D01*
X20000000Y-49500000D02*
X20000000Y-22500000D01*
X57500000Y-52000000D02*
X22500000Y-52000000D01*
X60000000Y-22500000D02*
G75*
G03X57500000Y-20000000I-2500000J0D01*
G01*
X57500000Y-52000000D02*
G75*
G03X60000000Y-49500000I0J2500000D01*
G01*
X20000000Y-49500000D02*
G75*
G03X22500000Y-52000000I2500000J0D01*
G01*
X22500000Y-20000000D02*
G75*
G03X20000000Y-22500000I0J-2500000D01*
G01*
D11*
X45607143Y-51107143D02*
X45392857Y-51178571D01*
X45035714Y-51178571D01*
X44892857Y-51107143D01*
X44821428Y-51035714D01*
X44750000Y-50892857D01*
X44750000Y-50750000D01*
X44821428Y-50607143D01*
X44892857Y-50535714D01*
X45035714Y-50464286D01*
X45321428Y-50392857D01*
X45464286Y-50321429D01*
X45535714Y-50250000D01*
X45607143Y-50107143D01*
X45607143Y-49964286D01*
X45535714Y-49821429D01*
X45464286Y-49750000D01*
X45321428Y-49678571D01*
X44964286Y-49678571D01*
X44750000Y-49750000D01*
X43535715Y-51107143D02*
X43678572Y-51178571D01*
X43964286Y-51178571D01*
X44107143Y-51107143D01*
X44178572Y-50964286D01*
X44178572Y-50392857D01*
X44107143Y-50250000D01*
X43964286Y-50178571D01*
X43678572Y-50178571D01*
X43535715Y-50250000D01*
X43464286Y-50392857D01*
X43464286Y-50535714D01*
X44178572Y-50678571D01*
X42821429Y-51178571D02*
X42821429Y-50178571D01*
X42821429Y-50464286D02*
X42750001Y-50321429D01*
X42678572Y-50250000D01*
X42535715Y-50178571D01*
X42392858Y-50178571D01*
X41892858Y-51178571D02*
X41892858Y-50178571D01*
X41892858Y-49678571D02*
X41964287Y-49750000D01*
X41892858Y-49821429D01*
X41821430Y-49750000D01*
X41892858Y-49678571D01*
X41892858Y-49821429D01*
X40535715Y-51178571D02*
X40535715Y-50392857D01*
X40607144Y-50250000D01*
X40750001Y-50178571D01*
X41035715Y-50178571D01*
X41178572Y-50250000D01*
X40535715Y-51107143D02*
X40678572Y-51178571D01*
X41035715Y-51178571D01*
X41178572Y-51107143D01*
X41250001Y-50964286D01*
X41250001Y-50821429D01*
X41178572Y-50678571D01*
X41035715Y-50607143D01*
X40678572Y-50607143D01*
X40535715Y-50535714D01*
X39607143Y-51178571D02*
X39750001Y-51107143D01*
X39821429Y-50964286D01*
X39821429Y-49678571D01*
X39035715Y-51178571D02*
X39035715Y-49678571D01*
X38464287Y-49678571D01*
X38321429Y-49750000D01*
X38250001Y-49821429D01*
X38178572Y-49964286D01*
X38178572Y-50178571D01*
X38250001Y-50321429D01*
X38321429Y-50392857D01*
X38464287Y-50464286D01*
X39035715Y-50464286D01*
X36892858Y-51178571D02*
X36892858Y-50392857D01*
X36964287Y-50250000D01*
X37107144Y-50178571D01*
X37392858Y-50178571D01*
X37535715Y-50250000D01*
X36892858Y-51107143D02*
X37035715Y-51178571D01*
X37392858Y-51178571D01*
X37535715Y-51107143D01*
X37607144Y-50964286D01*
X37607144Y-50821429D01*
X37535715Y-50678571D01*
X37392858Y-50607143D01*
X37035715Y-50607143D01*
X36892858Y-50535714D01*
X36250001Y-51107143D02*
X36107144Y-51178571D01*
X35821429Y-51178571D01*
X35678572Y-51107143D01*
X35607144Y-50964286D01*
X35607144Y-50892857D01*
X35678572Y-50750000D01*
X35821429Y-50678571D01*
X36035715Y-50678571D01*
X36178572Y-50607143D01*
X36250001Y-50464286D01*
X36250001Y-50392857D01*
X36178572Y-50250000D01*
X36035715Y-50178571D01*
X35821429Y-50178571D01*
X35678572Y-50250000D01*
X35035715Y-51107143D02*
X34892858Y-51178571D01*
X34607143Y-51178571D01*
X34464286Y-51107143D01*
X34392858Y-50964286D01*
X34392858Y-50892857D01*
X34464286Y-50750000D01*
X34607143Y-50678571D01*
X34821429Y-50678571D01*
X34964286Y-50607143D01*
X35035715Y-50464286D01*
X35035715Y-50392857D01*
X34964286Y-50250000D01*
X34821429Y-50178571D01*
X34607143Y-50178571D01*
X34464286Y-50250000D01*
X46571428Y-21178571D02*
X46285714Y-22178571D01*
X46000000Y-21464286D01*
X45714285Y-22178571D01*
X45428571Y-21178571D01*
X44999999Y-21178571D02*
X44642856Y-22178571D01*
X44285714Y-21178571D02*
X44642856Y-22178571D01*
X44785714Y-22535714D01*
X44857142Y-22607143D01*
X44999999Y-22678571D01*
X43499999Y-22178571D02*
X43642857Y-22107143D01*
X43714285Y-22035714D01*
X43785714Y-21892857D01*
X43785714Y-21464286D01*
X43714285Y-21321429D01*
X43642857Y-21250000D01*
X43499999Y-21178571D01*
X43285714Y-21178571D01*
X43142857Y-21250000D01*
X43071428Y-21321429D01*
X42999999Y-21464286D01*
X42999999Y-21892857D01*
X43071428Y-22035714D01*
X43142857Y-22107143D01*
X43285714Y-22178571D01*
X43499999Y-22178571D01*
X42142856Y-22178571D02*
X42285714Y-22107143D01*
X42357142Y-21964286D01*
X42357142Y-20678571D01*
X40928571Y-21178571D02*
X40928571Y-22178571D01*
X41571428Y-21178571D02*
X41571428Y-21964286D01*
X41500000Y-22107143D01*
X41357142Y-22178571D01*
X41142857Y-22178571D01*
X41000000Y-22107143D01*
X40928571Y-22035714D01*
X40214285Y-22178571D02*
X40214285Y-21178571D01*
X40214285Y-21321429D02*
X40142857Y-21250000D01*
X39999999Y-21178571D01*
X39785714Y-21178571D01*
X39642857Y-21250000D01*
X39571428Y-21392857D01*
X39571428Y-22178571D01*
X39571428Y-21392857D02*
X39499999Y-21250000D01*
X39357142Y-21178571D01*
X39142857Y-21178571D01*
X38999999Y-21250000D01*
X38928571Y-21392857D01*
X38928571Y-22178571D01*
X38214285Y-22035714D02*
X38142857Y-22107143D01*
X38214285Y-22178571D01*
X38285714Y-22107143D01*
X38214285Y-22035714D01*
X38214285Y-22178571D01*
X36857142Y-22107143D02*
X36999999Y-22178571D01*
X37285713Y-22178571D01*
X37428571Y-22107143D01*
X37499999Y-22035714D01*
X37571428Y-21892857D01*
X37571428Y-21464286D01*
X37499999Y-21321429D01*
X37428571Y-21250000D01*
X37285713Y-21178571D01*
X36999999Y-21178571D01*
X36857142Y-21250000D01*
X35999999Y-22178571D02*
X36142857Y-22107143D01*
X36214285Y-22035714D01*
X36285714Y-21892857D01*
X36285714Y-21464286D01*
X36214285Y-21321429D01*
X36142857Y-21250000D01*
X35999999Y-21178571D01*
X35785714Y-21178571D01*
X35642857Y-21250000D01*
X35571428Y-21321429D01*
X35499999Y-21464286D01*
X35499999Y-21892857D01*
X35571428Y-22035714D01*
X35642857Y-22107143D01*
X35785714Y-22178571D01*
X35999999Y-22178571D01*
X34857142Y-22178571D02*
X34857142Y-21178571D01*
X34857142Y-21321429D02*
X34785714Y-21250000D01*
X34642856Y-21178571D01*
X34428571Y-21178571D01*
X34285714Y-21250000D01*
X34214285Y-21392857D01*
X34214285Y-22178571D01*
X34214285Y-21392857D02*
X34142856Y-21250000D01*
X33999999Y-21178571D01*
X33785714Y-21178571D01*
X33642856Y-21250000D01*
X33571428Y-21392857D01*
X33571428Y-22178571D01*
%LPC*%
D12*
X40000000Y-46160000D03*
D13*
X40000000Y-43620000D03*
X40000000Y-41080000D03*
X40000000Y-38540000D03*
X40000000Y-36000000D03*
X40000000Y-33460000D03*
X40000000Y-30920000D03*
X40000000Y-28380000D03*
X40000000Y-25840000D03*
D14*
X29580000Y-48500000D03*
X29580000Y-23500000D03*
D15*
X31000000Y-41540000D03*
D16*
X31000000Y-38770000D03*
X31000000Y-36000000D03*
X31000000Y-33230000D03*
X31000000Y-30460000D03*
X28160000Y-31845000D03*
X28160000Y-34615000D03*
X28160000Y-37385000D03*
X28160000Y-40155000D03*
D14*
X50420000Y-23500000D03*
X50420000Y-48500000D03*
D16*
X49000000Y-30460000D03*
X49000000Y-33230000D03*
X49000000Y-36000000D03*
X49000000Y-38770000D03*
D15*
X49000000Y-41540000D03*
D16*
X51840000Y-40155000D03*
X51840000Y-37385000D03*
X51840000Y-34615000D03*
X51840000Y-31845000D03*
M02*
