G04 #@! TF.FileFunction,Copper,L2,Bot,Signal*
%FSLAX46Y46*%
G04 Gerber Fmt 4.6, Leading zero omitted, Abs format (unit mm)*
G04 Created by KiCad (PCBNEW 0.201503050816+5478~22~ubuntu14.10.1-product) date Friday 13 March 2015 12:23:03 AM IST*
%MOMM*%
G01*
G04 APERTURE LIST*
%ADD10C,0.100000*%
%ADD11R,2.200000X1.700000*%
%ADD12O,2.200000X1.700000*%
%ADD13C,4.200000*%
%ADD14R,2.400000X1.400000*%
%ADD15O,2.400000X1.400000*%
%ADD16C,0.500000*%
G04 APERTURE END LIST*
D10*
X60000000Y-22500000D02*
X60000000Y-49500000D01*
X22500000Y-20000000D02*
X57500000Y-20000000D01*
X20000000Y-49500000D02*
X20000000Y-22500000D01*
X57500000Y-52000000D02*
X22500000Y-52000000D01*
X60000000Y-22500000D02*
G75*
G03X57500000Y-20000000I-2500000J0D01*
G01*
X57500000Y-52000000D02*
G75*
G03X60000000Y-49500000I0J2500000D01*
G01*
X20000000Y-49500000D02*
G75*
G03X22500000Y-52000000I2500000J0D01*
G01*
X22500000Y-20000000D02*
G75*
G03X20000000Y-22500000I0J-2500000D01*
G01*
D11*
X40000000Y-46160000D03*
D12*
X40000000Y-43620000D03*
X40000000Y-41080000D03*
X40000000Y-38540000D03*
X40000000Y-36000000D03*
X40000000Y-33460000D03*
X40000000Y-30920000D03*
X40000000Y-28380000D03*
X40000000Y-25840000D03*
D13*
X29580000Y-48500000D03*
X29580000Y-23500000D03*
D14*
X31000000Y-41540000D03*
D15*
X31000000Y-38770000D03*
X31000000Y-36000000D03*
X31000000Y-33230000D03*
X31000000Y-30460000D03*
X28160000Y-31845000D03*
X28160000Y-34615000D03*
X28160000Y-37385000D03*
X28160000Y-40155000D03*
D13*
X50420000Y-23500000D03*
X50420000Y-48500000D03*
D15*
X49000000Y-30460000D03*
X49000000Y-33230000D03*
X49000000Y-36000000D03*
X49000000Y-38770000D03*
D14*
X49000000Y-41540000D03*
D15*
X51840000Y-40155000D03*
X51840000Y-37385000D03*
X51840000Y-34615000D03*
X51840000Y-31845000D03*
D16*
X49000000Y-41540000D02*
X46960000Y-41540000D01*
X42340000Y-46160000D02*
X40000000Y-46160000D01*
X46960000Y-41540000D02*
X42340000Y-46160000D01*
X31000000Y-41540000D02*
X33040000Y-41540000D01*
X37660000Y-46160000D02*
X40000000Y-46160000D01*
X33040000Y-41540000D02*
X37660000Y-46160000D01*
X49000000Y-38770000D02*
X46730000Y-38770000D01*
X41880000Y-43620000D02*
X40000000Y-43620000D01*
X46730000Y-38770000D02*
X41880000Y-43620000D01*
X31000000Y-38770000D02*
X33270000Y-38770000D01*
X38120000Y-43620000D02*
X40000000Y-43620000D01*
X33270000Y-38770000D02*
X38120000Y-43620000D01*
X49000000Y-36000000D02*
X47000000Y-36000000D01*
X41920000Y-41080000D02*
X40000000Y-41080000D01*
X47000000Y-36000000D02*
X41920000Y-41080000D01*
X31000000Y-36000000D02*
X33000000Y-36000000D01*
X38080000Y-41080000D02*
X40000000Y-41080000D01*
X33000000Y-36000000D02*
X38080000Y-41080000D01*
X49000000Y-33230000D02*
X46770000Y-33230000D01*
X41460000Y-38540000D02*
X40000000Y-38540000D01*
X46770000Y-33230000D02*
X41460000Y-38540000D01*
X31000000Y-33230000D02*
X33230000Y-33230000D01*
X38540000Y-38540000D02*
X40000000Y-38540000D01*
X33230000Y-33230000D02*
X38540000Y-38540000D01*
X49000000Y-30460000D02*
X47040000Y-30460000D01*
X41500000Y-36000000D02*
X40000000Y-36000000D01*
X47040000Y-30460000D02*
X41500000Y-36000000D01*
X31000000Y-30460000D02*
X32960000Y-30460000D01*
X32960000Y-30460000D02*
X38500000Y-36000000D01*
X38500000Y-36000000D02*
X40000000Y-36000000D01*
X49000000Y-30460000D02*
X48040000Y-30460000D01*
X31000000Y-30460000D02*
X31960000Y-30460000D01*
M02*
