M48
INCH,TZ
T1C0.043
T2C0.126
%
G90
G05
T1
X011087Y-012537
X011087Y-013628
X011087Y-014719
X011087Y-015809
X012205Y-011992
X012205Y-013083
X012205Y-014173
X012205Y-015264
X012205Y-016354
X015748Y-010173
X015748Y-011173
X015748Y-012173
X015748Y-013173
X015748Y-014173
X015748Y-015173
X015748Y-016173
X015748Y-017173
X015748Y-018173
X019291Y-011992
X019291Y-013083
X019291Y-014173
X019291Y-015264
X019291Y-016354
X020409Y-012537
X020409Y-013628
X020409Y-014719
X020409Y-015809
T2
X011646Y-009252
X011646Y-019094
X019850Y-009252
X019850Y-019094
T0
M30
